# Blender 5.0.0
# www.blender.org
mtllib screenmask.mtl
o Camo_Goggles
v -0.073129 -0.064403 0.015583
v -0.077172 -0.060034 0.011752
v -0.077172 -0.060034 -0.014412
v -0.073129 -0.064403 -0.021890
v -0.066786 -0.070308 0.019538
v -0.066786 -0.070308 -0.027006
v -0.059948 -0.075632 0.022628
v -0.059948 -0.075632 -0.030679
v -0.052667 -0.080332 -0.032393
v -0.052667 -0.080332 0.024729
v -0.045001 -0.084373 -0.033814
v -0.045001 -0.084373 0.026831
v -0.037008 -0.087723 -0.034737
v -0.037008 -0.087723 0.028190
v -0.028752 -0.090356 -0.035448
v -0.028752 -0.090356 0.029179
v -0.020295 -0.092252 -0.024177
v -0.020295 -0.092252 0.029921
v -0.010474 -0.093395 -0.007347
v -0.011705 -0.093395 0.030415
v -0.003047 -0.093777 -0.005379
v -0.003047 -0.093777 0.030415
v 0.005611 -0.093395 0.030415
v 0.004453 -0.093395 -0.007347
v 0.014201 -0.092252 0.029921
v 0.014201 -0.092252 -0.024177
v 0.022658 -0.090356 0.029179
v 0.022658 -0.090356 -0.035448
v 0.030914 -0.087723 0.028190
v 0.030914 -0.087724 -0.034737
v 0.038907 -0.084373 0.026831
v 0.038907 -0.084373 -0.033814
v 0.046573 -0.080332 0.024729
v 0.046573 -0.080332 -0.032393
v 0.053854 -0.075632 0.022628
v 0.053854 -0.075632 -0.030679
v 0.060692 -0.070308 -0.027006
v 0.060692 -0.070308 0.019538
v 0.067035 -0.064403 -0.021890
v 0.067035 -0.064403 0.015583
v 0.071078 -0.060034 -0.014412
v 0.071078 -0.060034 0.011752
vn -0.6926 -0.7213 -0.0000
vn -0.7340 -0.6792 -0.0000
vn -0.6897 -0.7241 -0.0000
vn -0.6374 -0.7706 -0.0000
vn -0.6363 -0.7715 -0.0000
vn -0.5689 -0.8224 -0.0000
vn -0.5716 -0.8206 -0.0000
vn -0.4996 -0.8662 -0.0000
vn -0.4983 -0.8670 -0.0000
vn -0.4224 -0.9064 -0.0000
vn -0.4217 -0.9067 -0.0000
vn -0.3426 -0.9395 -0.0000
vn -0.3419 -0.9397 -0.0000
vn -0.2781 -0.9606 -0.0000
vn -0.2621 -0.9650 -0.0000
vn -0.2018 -0.9794 -0.0003
vn -0.1773 -0.9842 -0.0015
vn -0.1020 -0.9948 -0.0006
vn -0.0899 -0.9960 -0.0023
vn -0.0001 -1.0000 -0.0008
vn -0.0000 -1.0000 -0.0000
vn 0.0898 -0.9960 -0.0022
vn 0.1023 -0.9948 -0.0005
vn 0.1775 -0.9841 -0.0014
vn 0.2017 -0.9794 -0.0001
vn 0.2621 -0.9650 -0.0000
vn 0.2776 -0.9607 -0.0000
vn 0.3411 -0.9400 -0.0000
vn 0.3430 -0.9393 -0.0000
vn 0.4217 -0.9067 -0.0000
vn 0.4228 -0.9062 -0.0000
vn 0.4983 -0.8670 -0.0000
vn 0.4998 -0.8662 -0.0000
vn 0.5689 -0.8224 -0.0000
vn 0.5716 -0.8206 -0.0000
vn 0.6363 -0.7715 -0.0000
vn 0.6373 -0.7706 -0.0000
vn 0.6897 -0.7241 -0.0000
vn 0.6926 -0.7213 -0.0000
vn 0.7340 -0.6792 -0.0000
vt 0.748670 0.892751
vt 0.730681 0.911123
vt 0.637105 0.890838
vt 0.614992 0.863762
vt 0.769342 0.864835
vt 0.603697 0.828919
vt 0.787093 0.836361
vt 0.597039 0.795141
vt 0.597935 0.763004
vt 0.801341 0.807201
vt 0.599979 0.731192
vt 0.815007 0.777915
vt 0.603184 0.699633
vt 0.826349 0.748124
vt 0.607521 0.668472
vt 0.836497 0.718225
vt 0.654314 0.646384
vt 0.846096 0.688055
vt 0.720834 0.628734
vt 0.854500 0.657778
vt 0.734469 0.599593
vt 0.861161 0.627122
vt 0.867791 0.596611
vt 0.734125 0.567567
vt 0.872740 0.565431
vt 0.680958 0.523759
vt 0.876527 0.533998
vt 0.647551 0.484245
vt 0.879733 0.502439
vt 0.656568 0.453948
vt 0.881713 0.470918
vt 0.666748 0.423905
vt 0.881432 0.438601
vt 0.678090 0.394114
vt 0.880633 0.405868
vt 0.690594 0.364575
vt 0.710653 0.336678
vt 0.876283 0.372667
vt 0.735425 0.309501
vt 0.869028 0.338835
vt 0.766767 0.294097
vt 0.860334 0.314428
s 1
usemtl Goggles_glass
f 1/1/1 2/2/2 3/3/2 4/4/3
f 5/5/4 1/1/1 4/4/3 6/6/5
f 7/7/6 5/5/4 6/6/5 8/8/7
f 7/7/6 8/8/7 9/9/8 10/10/9
f 10/10/9 9/9/8 11/11/10 12/12/11
f 12/12/11 11/11/10 13/13/12 14/14/13
f 14/14/13 13/13/12 15/15/14 16/16/15
f 16/16/15 15/15/14 17/17/16 18/18/17
f 18/18/17 17/17/16 19/19/18 20/20/19
f 20/20/19 19/19/18 21/21/20 22/22/21
f 23/23/22 22/22/21 21/21/20 24/24/23
f 25/25/24 23/23/22 24/24/23 26/26/25
f 27/27/26 25/25/24 26/26/25 28/28/27
f 29/29/28 27/27/26 28/28/27 30/30/29
f 31/31/30 29/29/28 30/30/29 32/32/31
f 33/33/32 31/31/30 32/32/31 34/34/33
f 35/35/34 33/33/32 34/34/33 36/36/35
f 35/35/34 36/36/35 37/37/36 38/38/37
f 38/38/37 37/37/36 39/39/38 40/40/39
f 40/40/39 39/39/38 41/41/40 42/42/40
