# Blender 5.0.0
# www.blender.org
mtllib star2.mtl
o Plane
v -0.000000 -0.000000 1.414214
v 0.000000 -1.414214 0.000000
v -0.000000 1.414214 0.000000
v 0.000000 0.000000 -1.414214
v 0.000000 0.000000 0.000000
v -0.000000 0.093928 1.071183
v -0.000000 0.000035 0.000035
v -0.000000 1.071183 0.093928
v -0.000000 0.142348 0.818854
v -0.000000 0.158176 0.561904
v -0.000000 0.198811 0.825227
v -0.000000 0.233712 0.647766
v -0.000000 0.237951 0.477350
v -0.000000 0.365193 0.581286
v -0.000000 0.347331 0.487274
v -0.000000 0.322023 0.399926
v -0.000000 0.132138 0.081289
v -0.000000 0.324985 0.137279
v -0.000000 0.081289 0.132138
v -0.000000 0.187628 0.191815
v -0.000000 0.321681 0.223442
v -0.000000 0.137279 0.324985
v -0.000000 0.222544 0.323509
v -0.000000 0.314127 0.314127
v -0.000000 0.825227 0.198811
v -0.000000 0.581286 0.365193
v -0.000000 0.818854 0.142348
v -0.000000 0.647375 0.229216
v -0.000000 0.487087 0.345484
v -0.000000 0.561904 0.158176
v -0.000000 0.477280 0.236931
v -0.000000 0.399926 0.322023
v 0.000000 -0.093928 -1.071183
v 0.000000 -0.000035 -0.000035
v 0.000000 -1.071183 -0.093928
v 0.000000 -0.142348 -0.818854
v 0.000000 -0.158176 -0.561904
v 0.000000 -0.198811 -0.825227
v 0.000000 -0.233712 -0.647766
v 0.000000 -0.237951 -0.477350
v 0.000000 -0.365193 -0.581286
v 0.000000 -0.347331 -0.487274
v 0.000000 -0.322023 -0.399926
v 0.000000 -0.132138 -0.081289
v 0.000000 -0.324985 -0.137279
v 0.000000 -0.081289 -0.132138
v 0.000000 -0.187628 -0.191815
v 0.000000 -0.321681 -0.223442
v 0.000000 -0.137279 -0.324985
v 0.000000 -0.222544 -0.323509
v 0.000000 -0.314127 -0.314127
v 0.000000 -0.825227 -0.198811
v 0.000000 -0.581286 -0.365193
v 0.000000 -0.818854 -0.142348
v 0.000000 -0.647375 -0.229216
v 0.000000 -0.487087 -0.345484
v 0.000000 -0.561904 -0.158176
v 0.000000 -0.477280 -0.236931
v 0.000000 -0.399926 -0.322023
v 0.000000 -1.071183 0.093928
v -0.000000 -0.000035 0.000035
v -0.000000 -0.093928 1.071183
v 0.000000 -0.818854 0.142348
v 0.000000 -0.561904 0.158176
v 0.000000 -0.825227 0.198811
v 0.000000 -0.647766 0.233712
v 0.000000 -0.477350 0.237951
v 0.000000 -0.581286 0.365193
v 0.000000 -0.487274 0.347331
v 0.000000 -0.399926 0.322023
v -0.000000 -0.081289 0.132138
v -0.000000 -0.137279 0.324985
v 0.000000 -0.132138 0.081289
v 0.000000 -0.191815 0.187628
v -0.000000 -0.223442 0.321681
v 0.000000 -0.324985 0.137279
v 0.000000 -0.323509 0.222544
v 0.000000 -0.314127 0.314127
v -0.000000 -0.198811 0.825227
v -0.000000 -0.365193 0.581286
v -0.000000 -0.142348 0.818854
v -0.000000 -0.229216 0.647375
v -0.000000 -0.345484 0.487087
v -0.000000 -0.158176 0.561904
v -0.000000 -0.236931 0.477280
v -0.000000 -0.322023 0.399926
v -0.000000 1.071183 -0.093928
v 0.000000 0.000035 -0.000035
v 0.000000 0.093928 -1.071183
v -0.000000 0.818854 -0.142348
v -0.000000 0.561904 -0.158176
v -0.000000 0.825227 -0.198811
v -0.000000 0.647766 -0.233712
v -0.000000 0.477350 -0.237951
v -0.000000 0.581286 -0.365193
v -0.000000 0.487274 -0.347331
v -0.000000 0.399926 -0.322023
v 0.000000 0.081289 -0.132138
v 0.000000 0.137279 -0.324985
v -0.000000 0.132138 -0.081289
v -0.000000 0.191815 -0.187628
v 0.000000 0.223442 -0.321681
v -0.000000 0.324985 -0.137279
v -0.000000 0.323509 -0.222544
v -0.000000 0.314127 -0.314127
v 0.000000 0.198811 -0.825227
v 0.000000 0.365193 -0.581286
v 0.000000 0.142348 -0.818854
v 0.000000 0.229216 -0.647375
v 0.000000 0.345484 -0.487087
v 0.000000 0.158176 -0.561904
v 0.000000 0.236931 -0.477280
v 0.000000 0.322023 -0.399926
vn 1.0000 -0.0000 -0.0000
vt 0.000000 0.154488
vt 0.018055 0.252183
vt -0.010817 0.355340
vt -0.033028 0.293967
vt 0.069242 0.329403
vt 0.017740 0.409110
vt 0.140298 0.392215
vt 0.069328 0.445686
vt -0.087297 0.483978
vt -0.125819 0.474833
vt -0.010600 0.468221
vt -0.003007 0.501158
vt 0.499942 0.500000
vt 0.333292 0.533008
vt 0.187486 0.498747
vt 0.327018 0.467393
vt 0.170120 0.604090
vt 0.082138 0.550355
vt -0.002706 0.706261
vt -0.046985 0.631939
vt -0.040246 0.552684
vt -0.274097 1.029575
vt -0.386633 0.970662
vt -0.245563 0.815178
vt -0.232190 0.908940
vt -0.251057 0.705014
vt -0.166558 0.634580
vt 1.000000 0.845512
vt 0.981945 0.747817
vt 1.010817 0.644660
vt 1.033028 0.706033
vt 0.930758 0.670597
vt 0.982260 0.590890
vt 0.859702 0.607785
vt 0.930672 0.554314
vt 1.087297 0.516022
vt 1.125819 0.525167
vt 1.010600 0.531779
vt 1.003007 0.498842
vt 0.500058 0.500000
vt 0.666708 0.466992
vt 0.812514 0.501253
vt 0.672982 0.532607
vt 0.829880 0.395910
vt 0.917862 0.449645
vt 1.002707 0.293739
vt 1.046985 0.368061
vt 1.040246 0.447316
vt 1.274097 -0.029575
vt 1.386633 0.029338
vt 1.245563 0.184822
vt 1.232190 0.091060
vt 1.251057 0.294986
vt 1.166558 0.365420
vt 0.845512 0.000000
vt 0.747817 0.018055
vt 0.644660 -0.010817
vt 0.706033 -0.033028
vt 0.670597 0.069242
vt 0.590890 0.017740
vt 0.607785 0.140298
vt 0.554314 0.069328
vt 0.516022 -0.087297
vt 0.525167 -0.125819
vt 0.531779 -0.010600
vt 0.498842 -0.003007
vt 0.500000 0.499942
vt 0.466992 0.333292
vt 0.501253 0.187486
vt 0.532607 0.327018
vt 0.395910 0.170120
vt 0.449645 0.082138
vt 0.293739 -0.002706
vt 0.368061 -0.046985
vt 0.447316 -0.040246
vt -0.029575 -0.274097
vt 0.029338 -0.386633
vt 0.184822 -0.245563
vt 0.091060 -0.232190
vt 0.294986 -0.251057
vt 0.365420 -0.166558
vt 0.154488 1.000000
vt 0.252183 0.981945
vt 0.355340 1.010817
vt 0.293967 1.033028
vt 0.329403 0.930758
vt 0.409110 0.982260
vt 0.392215 0.859702
vt 0.445686 0.930672
vt 0.483978 1.087297
vt 0.474833 1.125819
vt 0.468221 1.010600
vt 0.501158 1.003007
vt 0.500000 0.500058
vt 0.533008 0.666708
vt 0.498747 0.812514
vt 0.467393 0.672982
vt 0.604090 0.829880
vt 0.550355 0.917862
vt 0.706261 1.002706
vt 0.631939 1.046985
vt 0.552684 1.040246
vt 1.029575 1.274097
vt 0.970662 1.386633
vt 0.815178 1.245563
vt 0.908940 1.232190
vt 0.705014 1.251057
vt 0.634580 1.166558
vt 0.000000 0.000000
vt 0.500000 0.500000
vt 0.000000 1.000000
vt 1.000000 1.000000
vt 1.000000 0.000000
s 0
f 6/1/1 9/2/1 12/3/1 11/4/1
f 9/2/1 10/5/1 13/6/1 12/3/1
f 10/5/1 22/7/1 23/8/1 13/6/1
f 11/4/1 12/3/1 15/9/1 14/10/1
f 12/3/1 13/6/1 16/11/1 15/9/1
f 13/6/1 23/8/1 24/12/1 16/11/1
f 7/13/1 17/14/1 20/15/1 19/16/1
f 17/14/1 18/17/1 21/18/1 20/15/1
f 18/17/1 30/19/1 31/20/1 21/18/1
f 19/16/1 20/15/1 23/8/1 22/7/1
f 20/15/1 21/18/1 24/12/1 23/8/1
f 21/18/1 31/20/1 32/21/1 24/12/1
f 8/22/1 25/23/1 28/24/1 27/25/1
f 25/23/1 26/26/1 29/27/1 28/24/1
f 26/26/1 14/10/1 15/9/1 29/27/1
f 27/25/1 28/24/1 31/20/1 30/19/1
f 28/24/1 29/27/1 32/21/1 31/20/1
f 29/27/1 15/9/1 16/11/1 32/21/1
f 16/11/1 24/12/1 32/21/1
f 33/28/1 36/29/1 39/30/1 38/31/1
f 36/29/1 37/32/1 40/33/1 39/30/1
f 37/32/1 49/34/1 50/35/1 40/33/1
f 38/31/1 39/30/1 42/36/1 41/37/1
f 39/30/1 40/33/1 43/38/1 42/36/1
f 40/33/1 50/35/1 51/39/1 43/38/1
f 34/40/1 44/41/1 47/42/1 46/43/1
f 44/41/1 45/44/1 48/45/1 47/42/1
f 45/44/1 57/46/1 58/47/1 48/45/1
f 46/43/1 47/42/1 50/35/1 49/34/1
f 47/42/1 48/45/1 51/39/1 50/35/1
f 48/45/1 58/47/1 59/48/1 51/39/1
f 35/49/1 52/50/1 55/51/1 54/52/1
f 52/50/1 53/53/1 56/54/1 55/51/1
f 53/53/1 41/37/1 42/36/1 56/54/1
f 54/52/1 55/51/1 58/47/1 57/46/1
f 55/51/1 56/54/1 59/48/1 58/47/1
f 56/54/1 42/36/1 43/38/1 59/48/1
f 43/38/1 51/39/1 59/48/1
f 60/55/1 63/56/1 66/57/1 65/58/1
f 63/56/1 64/59/1 67/60/1 66/57/1
f 64/59/1 76/61/1 77/62/1 67/60/1
f 65/58/1 66/57/1 69/63/1 68/64/1
f 66/57/1 67/60/1 70/65/1 69/63/1
f 67/60/1 77/62/1 78/66/1 70/65/1
f 61/67/1 71/68/1 74/69/1 73/70/1
f 71/68/1 72/71/1 75/72/1 74/69/1
f 72/71/1 84/73/1 85/74/1 75/72/1
f 73/70/1 74/69/1 77/62/1 76/61/1
f 74/69/1 75/72/1 78/66/1 77/62/1
f 75/72/1 85/74/1 86/75/1 78/66/1
f 62/76/1 79/77/1 82/78/1 81/79/1
f 79/77/1 80/80/1 83/81/1 82/78/1
f 80/80/1 68/64/1 69/63/1 83/81/1
f 81/79/1 82/78/1 85/74/1 84/73/1
f 82/78/1 83/81/1 86/75/1 85/74/1
f 83/81/1 69/63/1 70/65/1 86/75/1
f 70/65/1 78/66/1 86/75/1
f 87/82/1 90/83/1 93/84/1 92/85/1
f 90/83/1 91/86/1 94/87/1 93/84/1
f 91/86/1 103/88/1 104/89/1 94/87/1
f 92/85/1 93/84/1 96/90/1 95/91/1
f 93/84/1 94/87/1 97/92/1 96/90/1
f 94/87/1 104/89/1 105/93/1 97/92/1
f 88/94/1 98/95/1 101/96/1 100/97/1
f 98/95/1 99/98/1 102/99/1 101/96/1
f 99/98/1 111/100/1 112/101/1 102/99/1
f 100/97/1 101/96/1 104/89/1 103/88/1
f 101/96/1 102/99/1 105/93/1 104/89/1
f 102/99/1 112/101/1 113/102/1 105/93/1
f 89/103/1 106/104/1 109/105/1 108/106/1
f 106/104/1 107/107/1 110/108/1 109/105/1
f 107/107/1 95/91/1 96/90/1 110/108/1
f 108/106/1 109/105/1 112/101/1 111/100/1
f 109/105/1 110/108/1 113/102/1 112/101/1
f 110/108/1 96/90/1 97/92/1 113/102/1
f 97/92/1 105/93/1 113/102/1
f 1/109/1 62/76/1 81/79/1 84/73/1 72/71/1 71/68/1 61/67/1 5/110/1 7/13/1 19/16/1 22/7/1 10/5/1 9/2/1 6/1/1
f 8/22/1 27/25/1 30/19/1 18/17/1 17/14/1 7/13/1 5/110/1 88/94/1 100/97/1 103/88/1 91/86/1 90/83/1 87/82/1 3/111/1
f 5/110/1 34/40/1 46/43/1 49/34/1 37/32/1 36/29/1 33/28/1 4/112/1 89/103/1 108/106/1 111/100/1 99/98/1 98/95/1 88/94/1
f 61/67/1 73/70/1 76/61/1 64/59/1 63/56/1 60/55/1 2/113/1 35/49/1 54/52/1 57/46/1 45/44/1 44/41/1 34/40/1 5/110/1
